HIERARCHY
ROOT Root
{
	OFFSET 0.00 0.00 0.00
	CHANNELS 6 Xposition Yposition Zposition Xrotation Yrotation Zrotation
	End Site
	{
		OFFSET 11.15845 33.36195 0.00000
	}
	End Site
	{
		OFFSET -24.46944 8.18421 0.00000
	}
	End Site
	{
		OFFSET 0.00000 0.00000 10.63045
	}
}
MOTION
Frames: 102
Frame Time: 0.008342
 28.3315 -31.9824 -0.0143 0.6048 0.3818 21.9638
 28.3314 -31.9826 -0.0141 0.6047 0.3817 21.9636
 28.3313 -31.9828 -0.0139 0.6047 0.3815 21.9634
 28.3312 -31.9829 -0.0136 0.6046 0.3814 21.9632
 28.3312 -31.9831 -0.0133 0.6045 0.3812 21.9631
 28.3311 -31.9831 -0.0131 0.6044 0.3811 21.9631
 28.3310 -31.9832 -0.0129 0.6043 0.3810 21.9633
 28.3309 -31.9831 -0.0127 0.6042 0.3808 21.9636
 28.3308 -31.9830 -0.0127 0.6041 0.3807 21.9640
 28.3308 -31.9828 -0.0127 0.6041 0.3807 21.9646
 28.3308 -31.9825 -0.0128 0.6040 0.3807 21.9652
 28.3308 -31.9823 -0.0131 0.6040 0.3807 21.9659
 28.3308 -31.9820 -0.0133 0.6039 0.3807 21.9666
 28.3308 -31.9818 -0.0136 0.6038 0.3807 21.9672
 28.3308 -31.9816 -0.0138 0.6038 0.3807 21.9678
 28.3309 -31.9815 -0.0140 0.6037 0.3807 21.9681
 28.3309 -31.9815 -0.0141 0.6035 0.3806 21.9684
 28.3309 -31.9817 -0.0141 0.6033 0.3804 21.9684
 28.3310 -31.9819 -0.0140 0.6032 0.3801 21.9683
 28.3310 -31.9822 -0.0137 0.6029 0.3798 21.9680
 28.3311 -31.9826 -0.0134 0.6027 0.3794 21.9677
 28.3311 -31.9831 -0.0130 0.6024 0.3789 21.9673
 28.3311 -31.9835 -0.0126 0.6022 0.3784 21.9669
 28.3312 -31.9838 -0.0122 0.6020 0.3779 21.9666
 28.3312 -31.9841 -0.0119 0.6018 0.3775 21.9663
 28.3312 -31.9842 -0.0117 0.6017 0.3773 21.9662
 28.3312 -31.9842 -0.0117 0.6017 0.3771 21.9663
 28.3313 -31.9841 -0.0118 0.6017 0.3771 21.9665
 28.3313 -31.9838 -0.0121 0.6018 0.3773 21.9668
 28.3314 -31.9835 -0.0124 0.6020 0.3776 21.9673
 28.3314 -31.9831 -0.0129 0.6022 0.3780 21.9678
 28.3314 -31.9826 -0.0134 0.6024 0.3784 21.9683
 28.3315 -31.9823 -0.0138 0.6026 0.3788 21.9688
 28.3315 -31.9820 -0.0142 0.6028 0.3792 21.9692
 28.3316 -31.9818 -0.0144 0.6030 0.3795 21.9695
 28.3316 -31.9817 -0.0145 0.6031 0.3796 21.9697
 28.3317 -31.9818 -0.0144 0.6032 0.3795 21.9697
 28.3318 -31.9820 -0.0142 0.6032 0.3792 21.9696
 28.3318 -31.9823 -0.0139 0.6031 0.3788 21.9694
 28.3319 -31.9827 -0.0134 0.6030 0.3783 21.9691
 28.3319 -31.9830 -0.0130 0.6030 0.3777 21.9688
 28.3319 -31.9834 -0.0126 0.6029 0.3772 21.9683
 28.3318 -31.9836 -0.0123 0.6028 0.3768 21.9679
 28.3317 -31.9838 -0.0120 0.6027 0.3765 21.9675
 28.3316 -31.9838 -0.0120 0.6028 0.3765 21.9672
 28.3315 -31.9837 -0.0121 0.6028 0.3768 21.9669
 28.3313 -31.9835 -0.0123 0.6029 0.3772 21.9668
 28.3311 -31.9832 -0.0126 0.6031 0.3779 21.9666
 28.3310 -31.9828 -0.0130 0.6032 0.3786 21.9666
 28.3308 -31.9825 -0.0134 0.6033 0.3794 21.9666
 28.3307 -31.9821 -0.0138 0.6034 0.3802 21.9667
 28.3306 -31.9819 -0.0141 0.6035 0.3807 21.9668
 28.3306 -31.9817 -0.0142 0.6035 0.3811 21.9670
 28.3307 -31.9817 -0.0142 0.6034 0.3811 21.9671
 28.3308 -31.9818 -0.0141 0.6033 0.3808 21.9673
 28.3310 -31.9820 -0.0138 0.6032 0.3802 21.9674
 28.3312 -31.9824 -0.0134 0.6031 0.3793 21.9675
 28.3315 -31.9828 -0.0130 0.6030 0.3783 21.9675
 28.3317 -31.9832 -0.0126 0.6029 0.3773 21.9676
 28.3319 -31.9836 -0.0122 0.6029 0.3763 21.9676
 28.3321 -31.9840 -0.0119 0.6029 0.3755 21.9675
 28.3322 -31.9842 -0.0118 0.6030 0.3751 21.9675
 28.3322 -31.9843 -0.0118 0.6031 0.3750 21.9674
 28.3321 -31.9842 -0.0120 0.6032 0.3752 21.9674
 28.3319 -31.9840 -0.0123 0.6033 0.3758 21.9674
 28.3317 -31.9837 -0.0127 0.6034 0.3766 21.9674
 28.3315 -31.9832 -0.0132 0.6035 0.3776 21.9675
 28.3313 -31.9828 -0.0136 0.6035 0.3786 21.9676
 28.3311 -31.9823 -0.0140 0.6034 0.3795 21.9677
 28.3309 -31.9820 -0.0143 0.6033 0.3801 21.9678
 28.3308 -31.9817 -0.0145 0.6032 0.3805 21.9680
 28.3308 -31.9816 -0.0145 0.6031 0.3805 21.9681
 28.3309 -31.9817 -0.0144 0.6030 0.3802 21.9681
 28.3310 -31.9819 -0.0141 0.6031 0.3796 21.9681
 28.3312 -31.9822 -0.0139 0.6032 0.3788 21.9679
 28.3313 -31.9827 -0.0136 0.6035 0.3780 21.9677
 28.3314 -31.9832 -0.0133 0.6039 0.3773 21.9673
 28.3313 -31.9838 -0.0131 0.6044 0.3769 21.9668
 28.3312 -31.9842 -0.0131 0.6050 0.3770 21.9662
 28.3309 -31.9846 -0.0132 0.6057 0.3775 21.9655
 28.3304 -31.9849 -0.0135 0.6063 0.3785 21.9648
 28.3298 -31.9849 -0.0140 0.6070 0.3800 21.9640
 28.3291 -31.9849 -0.0146 0.6076 0.3818 21.9633
 28.3284 -31.9847 -0.0153 0.6082 0.3839 21.9627
 28.3276 -31.9843 -0.0160 0.6086 0.3859 21.9621
 28.3269 -31.9840 -0.0167 0.6089 0.3878 21.9617
 28.3263 -31.9836 -0.0173 0.6090 0.3893 21.9615
 28.3258 -31.9833 -0.0178 0.6091 0.3904 21.9613
 28.3256 -31.9831 -0.0181 0.6091 0.3908 21.9613
 28.3255 -31.9831 -0.0183 0.6092 0.3907 21.9613
 28.3256 -31.9832 -0.0182 0.6091 0.3900 21.9614
 28.3259 -31.9834 -0.0181 0.6092 0.3890 21.9614
 28.3262 -31.9838 -0.0178 0.6092 0.3877 21.9614
 28.3265 -31.9843 -0.0174 0.6093 0.3865 21.9613
 28.3268 -31.9847 -0.0170 0.6094 0.3856 21.9610
 28.3269 -31.9851 -0.0167 0.6095 0.3851 21.9605
 28.3269 -31.9853 -0.0164 0.6096 0.3852 21.9599
 28.3266 -31.9854 -0.0162 0.6096 0.3861 21.9591
 28.3260 -31.9852 -0.0162 0.6095 0.3876 21.9582
 28.3253 -31.9848 -0.0163 0.6094 0.3899 21.9571
 28.3243 -31.9843 -0.0165 0.6093 0.3926 21.9561
 28.3233 -31.9836 -0.0167 0.6091 0.3956 21.9551
